<svg xmlns="http://www.w3.org/2000/svg" viewBox="0 0 940 924" font-family="Virgil, Excalifont, 'Segoe Print', 'Comic Sans MS', cursive">
<rect x="0" y="0" width="940" height="924" rx="14" fill="#ffffff"/>
<path d="M471.28690813239666 74.74245891813189 C470.7949126865584 85.91767023801803, 472.01525110861843 95.27591626401991, 469.3434129005298 122.28412147406489 M470.7782109242864 76.81952622858807 C470.53896811042165 87.6596818801947, 470.6436719748769 98.2239802739583, 469.6542945635505 122.25287714628503" stroke="#495057" stroke-width="1.7" fill="none" stroke-linecap="round" stroke-linejoin="round"/>
<path d="M470,122 L465.51463501634476,111.95602165656462 L474.48536498365524,111.95602165656462 Z" fill="#495057" stroke="#495057" stroke-width="1"/>
<path d="M470.2584452353418 189.4099551834166 C467.74234932634977 201.96602589786053, 468.74635487768796 217.12177083715795, 470.42917770966886 256.8372234262526 M469.29441191740335 188.15766497664154 C470.4102492536977 206.62354326732458, 470.1971989240125 223.80666818581523, 470.03195770569147 258.0304114323109" stroke="#495057" stroke-width="1.7" fill="none" stroke-linecap="round" stroke-linejoin="round"/>
<path d="M470,258 L465.51463501634476,247.95602165656462 L474.48536498365524,247.95602165656462 Z" fill="#495057" stroke="#495057" stroke-width="1"/>
<path d="M469.22998233828696 328.47745144870134 C469.36171177021225 341.21319472268226, 470.1493844508287 357.36525174025445, 471.51494251880797 398.99032537844033 M469.6106129105203 327.495803724695 C469.13193669150587 347.9505052062683, 468.6011321676802 366.1155572012998, 470.4096208478324 397.80794571833684" stroke="#495057" stroke-width="1.7" fill="none" stroke-linecap="round" stroke-linejoin="round"/>
<path d="M470,398 L465.51463501634476,387.9560216565646 L474.48536498365524,387.9560216565646 Z" fill="#495057" stroke="#495057" stroke-width="1"/>
<path d="M468.2015194412321 463.54494771398606 C470.9810742140748 476.46036354750396, 467.95241402396937 493.60873264335095, 469.000707327947 533.543427330628 M469.92681390363725 464.63394247274846 C469.11362412931396 485.277467145212, 470.0650654113479 506.22444621678443, 470.7872839899734 533.5854800043628" stroke="#495057" stroke-width="1.7" fill="none" stroke-linecap="round" stroke-linejoin="round"/>
<path d="M470,534 L465.51463501634476,523.9560216565646 L474.48536498365524,523.9560216565646 Z" fill="#495057" stroke="#495057" stroke-width="1"/>
<path d="M470.7730565441772 588.6124439792708 C469.1216738239676 599.3055093580857, 469.47668076314034 604.2481675179675, 470.0864721370861 631.6965292828157 M470.2430148967542 589.9720812208019 C470.7398677509837 602.9960777520203, 469.57355483887716 615.316632567998, 469.3649471321143 629.3630142903887" stroke="#495057" stroke-width="1.7" fill="none" stroke-linecap="round" stroke-linejoin="round"/>
<path d="M470,630 L465.51463501634476,619.9560216565646 L474.48536498365524,619.9560216565646 Z" fill="#495057" stroke="#495057" stroke-width="1"/>
<path d="M469.7445936471224 697.2799402445555 C470.6298417209685 709.7544134795666, 470.76851578941944 720.8951190143824, 471.17223694622515 762.2496312350034 M470.5592158898711 695.3102199688553 C469.64049143996834 718.5648699447513, 469.95642433372143 741.9091820910572, 469.7426102742553 761.1405485764146" stroke="#495057" stroke-width="1.7" fill="none" stroke-linecap="round" stroke-linejoin="round"/>
<path d="M470,762 L465.51463501634476,751.9560216565646 L474.48536498365524,751.9560216565646 Z" fill="#495057" stroke="#495057" stroke-width="1"/>
<path d="M468.7161307500675 824.3474365098402 C468.67640423289686 830.1989658726379, 468.59874543062597 835.5333670539782, 468.65800175536424 854.8027331871912 M470.8754168829881 824.4483587169088 C469.55793820890415 835.4650308274663, 469.55611690851674 847.3644689940847, 470.12027341639623 856.7180828624405" stroke="#495057" stroke-width="1.7" fill="none" stroke-linecap="round" stroke-linejoin="round"/>
<path d="M470,856 L465.51463501634476,845.9560216565646 L474.48536498365524,845.9560216565646 Z" fill="#495057" stroke="#495057" stroke-width="1"/>
<path d="M631.2876678530126 154.4149327751249 C638.6233867183328 153.79850004321708, 646.7327937092632 153.72645301229133, 671.7437665645033 155.9558351393789 M629.391617876105 154.7864974649623 C646.9611614333467 154.39053715639187, 662.7836161768064 154.16184080414845, 672.4979365585372 155.4956171484664" stroke="#495057" stroke-width="1.7" fill="none" stroke-linecap="round" stroke-linejoin="round"/>
<path d="M672,155 L661.9560216565646,159.48536498365527 L661.9560216565646,150.51463501634473 Z" fill="#495057" stroke="#495057" stroke-width="1"/>
<text x="651" y="145" text-anchor="middle" font-size="11.5" fill="#868e96">operational</text>
<path d="M776.8412014860045 188.15293092401512 C781.8688224883806 235.28233661975153, 801.2462942416798 375.5940067938535, 806.1046331338417 471.0220036716629 C810.9629720260036 566.4500005494723, 841.2526127697558 692.3096755510736, 805.9912348389756 760.7209121908713 C770.7298569081954 829.132148830669, 629.7498592083188 861.609844752706, 594.5363655491602 881.489423510449 M775.468624951249 187.30882173992433 C780.9101339086708 234.14740544664897, 802.60770058189 374.3940550775095, 808.0332078871663 469.6805214076523 C813.4587151924427 564.9669877377951, 843.6085131257073 690.7266576853517, 808.0216687829073 759.0276197207812 C772.4348244401074 827.3285817562107, 629.7668629473822 859.3542330841028, 594.5121418303664 879.4862936202292" stroke="#495057" stroke-width="1.7" fill="none" stroke-linecap="round" stroke-linejoin="round"/>
<path d="M595,881 L601.4997612297419,872.1257054389465 L605.9465313871806,879.9167407561118 Z" fill="#495057" stroke="#495057" stroke-width="1"/>
<text x="847" y="640" text-anchor="middle" font-size="11.5" fill="#868e96">deterministic</text>
<path d="M308.99442261684686 430.54613781475274 C289.28433946145327 425.4401438102648, 210.39904657018928 418.8209896075651, 190.67845593035966 400.7902143912241 C170.95786529053004 382.7594391748831, 170.83734677518157 340.4921847906038, 190.67087877786904 322.36148651670663 C210.5044107805565 304.23078824280947, 289.6280272368267 297.02874886249754, 309.6796479464844 292.0060247478411 M310.41368119881145 429.38474782692055 C290.71553560410433 424.4039457189814, 210.20680561098447 419.7380478313849, 190.1953532815247 402.0392524780349 C170.1839009520649 384.34045712468486, 170.4224687819927 341.45487556961933, 190.34496722205273 323.1919757068203 C210.26746566211276 304.92907584402127, 289.7556210947513 297.632964738308, 309.7303439218848 292.4618533012406" stroke="#e8590c" stroke-width="1.7" fill="none" stroke-linecap="round" stroke-linejoin="round"/>
<path d="M310,293 L301.34377053832094,299.78746576468416 L299.1680489386671,291.08457936606885 Z" fill="#495057" stroke="#495057" stroke-width="1"/>
<text x="150" y="355" text-anchor="middle" font-size="11.5" fill="#868e96">reroute:</text>
<text x="150" y="370" text-anchor="middle" font-size="11.5" fill="#e8590c">run required step</text>
<path d="M383.6127549030818 24.891926661785693 C430.8952006152831 27.405129111506977, 477.26480233715847 25.994164506294766, 555.1857250222005 22.33254664009437 C561.7669240789553 27.82062442963943, 565.9618431248703 32.00663311164175, 563.5588639953173 38.323917964752766 C565.0747948028194 44.88740028431639, 562.3859424717771 56.10073628323153, 562.6173689371906 64.81596712851896 C564.835144907888 68.80269616116489, 561.6976522669261 78.80098596895114, 558.149260739144 75.7651392170228 C497.26874675704164 77.1843770767888, 443.59202174367385 76.22296605662909, 381.85203144336117 79.40980248814449 C376.3317022591764 75.1713435268961, 371.9233868011273 70.92712471634802, 371.37590522253885 63.320997173246 C377.5950315357326 59.474511964898554, 376.14071814130523 45.49730468960479, 375.6196057117544 34.18731209719554 C371.73315938478333 30.813815379136244, 380.1309096096018 22.5093559124507, 382.34224372571333 27.246883908752352 C385 26, 385 26, 385 26" stroke="none" stroke-width="0" fill="#e9ecef" stroke-linecap="round" stroke-linejoin="round"/>
<path d="M382.9026590221562 26.25365849947557 C420.3654774314724 25.991349920504728, 453.2813713450916 25.19328590618912, 554.3012378239073 26.250997828599065 M385.39692433136514 25.534399327309803 C426.41618247306906 26.709207809646614, 469.2574586182367 26.74792666353751, 554.8027469824534 25.799590007634833 M555 26 C562.1821975082224 26.284328582230955, 564.2249928704463 29.508001814776105, 566.4185170820914 36.638069634977725 M556.9271918795072 27.67921568984166 C562.6281797248423 24.461907040770164, 566.4747650166647 29.489271925881507, 566.8636489986675 37.450814678217284 M564.8688158803619 37.21136095141992 C565.9572881090595 46.89696463057771, 563.4867502766801 56.11895355982706, 563.9158174955286 67.62632666146382 M564.9718596752267 36.338382869632916 C565.2035467480634 41.41018474423326, 564.6752003659819 48.26522603114135, 563.9724787931424 66.42382377502508 M565 66 C565.3247837088071 70.55725532491411, 562.0230456054276 75.6628287726082, 555.3948884717189 78.0614183419384 M564.4076825699769 67.84533535474911 C566.6546151370602 72.57012852991186, 558.2155240513682 74.15989277377258, 553.1403454586165 74.16563287719619 M555.4491973632015 74.6059191009961 C503.5369046370499 77.73481811010745, 454.37513614566996 77.01547685885336, 387.02163595193997 75.38903609430417 M554.2183295573574 76.78606319692918 C498.61265579401515 74.29849388585892, 444.9393577001523 73.34173868732061, 385.6970154057723 75.43065203246661 M385 76 C379.82251173983605 77.03578444952146, 376.5511628500186 70.10478074569907, 374.4085183910094 66.19125241572037 M385.0997848174535 75.31292329663411 C380.88692215038276 77.12071194916498, 376.886498142709 69.85469420561753, 376.7485195987718 64.53955231442582 M373.7429978066124 66.64712298726663 C376.82249560166616 53.36094994666055, 375.65148818005343 43.56429936317727, 376.27023127907887 35.53407241618261 M375.65802587228825 64.96688122716732 C374.04224893495905 56.62427141577937, 375.4475449402677 48.168312881933524, 375.8781268398743 35.560687572928146 M375 36 C377.02305413698775 31.123399038606326, 381.0437358898977 25.546732073370368, 384.49966562902557 24.35957869226113 M373.1039136609994 36.41633010143414 C374.52947618134783 28.48190234397352, 381.78678926972486 23.586429711128584, 384.6208752765553 26.14047460123431 M385 26 C385 26, 385 26, 385 26 M385 26 C385 26, 385 26, 385 26" stroke="#495057" stroke-width="2" fill="none" stroke-linecap="round" stroke-linejoin="round"/>
<text x="470" y="56" text-anchor="middle" font-size="15" fill="#1e1e1e">Alert</text>
<path d="M320.61389306027667 121.79476101569546 C424.5861964435154 119.69781538764926, 527.8572414237577 119.13069204751979, 622.0806676179737 121.12060681094428 C624.1833086780338 122.32160654533655, 629.0695499403403 123.32232266449648, 631.8378575189039 128.62029501069338 C632.9170732709226 144.39645287711173, 628.338275590783 155.52960031237453, 627.6801007913425 178.34529889654368 C630.7082470463589 183.3160222879676, 624.4631191606699 190.05341387223453, 623.1230350600556 187.22538394164295 C550.2832222448949 188.06943329507217, 484.0687830764072 190.69004997518772, 321.07007469500087 187.9062659869672 C313.12001415238996 189.77474083770068, 308.7149766488001 180.96066172673088, 311.3128530902788 177.13152084816247 C309.7588428080771 167.48631190601736, 308.94003829962946 156.38987032230943, 312.93958693612365 133.80099362563342 C309.22045268882067 125.94889456377645, 315.3382313766451 121.33837286066264, 320.5633029507473 125.59673552345484 C320 122, 320 122, 320 122" stroke="none" stroke-width="0" fill="#ffe8cc" stroke-linecap="round" stroke-linejoin="round"/>
<path d="M320.6620072947545 121.38824029646274 C379.2330838286401 122.93507110555083, 441.35077733751376 123.20194094493664, 620.4164841787892 120.94621993514019 M320.5615752368652 122.63226652128795 C401.43678469519574 121.54429841067135, 482.5384212362073 121.13406632835665, 620.1784500145965 121.66271898625185 M620 122 C625.5612141753612 121.79786803852767, 629.488087769039 124.56185178206582, 631.786065514572 133.76845390331 M621.1189629213884 123.45917834173888 C624.1634336403915 122.11366451890208, 629.8199919222202 126.47722999370005, 632.2973941890803 132.71490109146572 M630.1625690175221 133.76904480624944 C628.8797563453261 143.6226945189759, 631.291573854262 156.39065258894115, 631.5641897572204 179.6037707882002 M630.9205196597613 132.50449633961543 C631.2578020496685 147.6328352267854, 630.9042963160593 164.62932968875393, 629.7735492118634 177.4940058595501 M630 178 C628.0402495997026 185.21127474522868, 626.5944836105285 189.74677299987525, 620.5136926846578 187.65958112012595 M629.279476978071 177.83320846688002 C629.088406334063 181.28499905522634, 625.2906515062758 190.0972686201427, 620.2367904804554 190.33328206182458 M619.2451381470254 187.58901386225756 C522.8697699842008 191.08721903802615, 429.04736604045615 189.9479767086482, 321.4797171382058 187.8972967305813 M620.5361164903582 188.56719907954465 C511.1348664618897 186.61829155813697, 403.5847390835096 186.83658220460111, 319.83882682995846 187.6726137253763 M320 188 C315.3389574178429 187.1851075185463, 311.52502774763855 184.73725375747958, 308.2803526001051 177.7003596736118 M321.20453647542746 187.3802053583786 C316.29905403841565 188.3690791848395, 307.9513313875999 181.66025833453702, 308.26678243680857 179.11500718654133 M311.98314055930825 179.77793836761265 C309.7736614136006 163.24022458847614, 309.74689173381586 143.95820100251586, 311.63071848284454 132.01188538838178 M309.23936043763536 177.56768509512767 C309.61799631926976 168.1509833293967, 309.89021118197405 158.41553528299556, 310.46994240367786 132.38976793354377 M310 132 C308.2193900482729 127.6541726832213, 312.81833509885985 122.225147886388, 321.17584018278865 122.1814633918926 M308.5136238353327 131.7361553443596 C309.39207028522156 128.18189043170122, 315.1717719729645 122.1164977926109, 318.107821718296 119.96216386795976 M320 122 C320 122, 320 122, 320 122 M320 122 C320 122, 320 122, 320 122" stroke="#e8590c" stroke-width="2" fill="none" stroke-linecap="round" stroke-linejoin="round"/>
<text x="470" y="149" text-anchor="middle" font-size="15" fill="#1e1e1e">1 · Resolve triage policy</text>
<text x="470" y="170" text-anchor="middle" font-size="12" fill="#495057">match alert → load active policy</text>
<path d="M322.2450446266529 258.4020655618634 C382.1272760000388 252.57166603708785, 446.70274918847394 252.47207123604343, 618.598768591518 258.9305351659872 C628.9996932771122 256.82258866103365, 627.1772567558103 262.0380122173512, 627.7168510424905 266.316672056634 C626.763506915071 289.962288503442, 627.6947638858343 307.0720304085873, 627.7428326454944 319.8746306645684 C631.5813491848297 325.8293484147703, 622.2285860544135 329.30584177551793, 623.0968093809672 326.6856286662631 C520.2115306832992 325.54439163121185, 424.4545773162439 326.06424632405987, 319.02216024477366 325.312144268193 C314.9083260456035 324.97813814850525, 310.50656649647283 326.39419873711375, 308.84980095801876 318.94204452307895 C307.25114416906143 305.3053247828968, 307.06784854659344 284.0968618265353, 307.8595681604929 266.0146751540713 C311.70774599285795 261.0839737484166, 315.54555314368844 260.1673898088746, 316.3843621757813 256.54658713815735 C320 258, 320 258, 320 258" stroke="none" stroke-width="0" fill="#d0ebff" stroke-linecap="round" stroke-linejoin="round"/>
<path d="M319.7821473445161 256.59047433721105 C380.5281526663055 255.5127601876213, 439.3822851892189 256.6317154197065, 621.3453664687343 258.78821946855567 M319.29217084308635 258.06603782225557 C407.4107538586137 258.7135208747928, 494.64611616967125 257.86466440691834, 620.5015444834418 257.4723974174451 M620 258 C623.9402308425 257.3114074948244, 629.7511826676316 263.8157017493555, 627.9536139470525 266.69883817164225 M620.3107339632697 259.2391409936361 C625.5286875559408 259.76542199703397, 628.1652188277757 263.4651880615186, 627.901139379493 267.97898750471415 M630.4563221546821 266.12672866107897 C631.1179647136246 285.885088290181, 630.0121375638759 307.73567938366904, 630.0125620189123 319.5812149149366 M629.769179644296 268.670609809598 C629.2674741858384 282.6113060563337, 629.0888091007015 298.50507404035886, 630.5746196305845 318.6641879440751 M630 318 C629.9557154905982 323.6652941655433, 626.1659216156294 327.6307172271423, 620.6324968975969 329.4577438983135 M629.1512713861651 320.0210815790109 C631.3521975310659 322.82986958054084, 627.3657789611834 329.20464446651283, 622.3332355022943 329.67093124645294 M621.2407173627993 328.2002988832692 C518.3173478834826 328.39269923520914, 415.40312912411326 326.6417031999504, 321.47698076266965 328.2426096274259 M620.1055098262835 328.5579827331603 C500.90689646015744 325.8555241744159, 382.4536115100327 326.9936883139012, 320.70645384495657 327.7627268992571 M320 328 C315.8554030958498 329.53443058757114, 311.4988926452585 323.16972676926014, 311.3521868092008 317.20946693150324 M318.10928813340144 327.4474874201231 C316.71118592644854 327.617446420514, 308.84616463249085 321.46582246345656, 309.61504527484533 316.8604620586568 M311.0232833120041 316.70875374795867 C308.75866587630003 301.9845247338526, 309.87613393834323 286.6821536489762, 311.9912056866102 268.489698360581 M309.92069500298237 318.168488963088 C310.21456609845626 302.1174747857731, 309.3536998185562 285.5423167695757, 310.0617579674814 267.1188482941594 M310 268 C308.61572595955806 264.18494632783626, 313.792934307822 258.90356369940565, 318.6520147365518 260.0033480915241 M308.923334009666 267.05598058728503 C309.2546643890953 263.0518785194289, 313.55675467620415 255.81656587409321, 321.42476816003676 258.6138531346852 M320 258 C320 258, 320 258, 320 258 M320 258 C320 258, 320 258, 320 258" stroke="#1971c2" stroke-width="2" fill="none" stroke-linecap="round" stroke-linejoin="round"/>
<text x="470" y="287" text-anchor="middle" font-size="15" fill="#1e1e1e">Agentic loop · Supervisor + tools</text>
<text x="470" y="308" text-anchor="middle" font-size="12" fill="#495057">enrich · investigate · contextualize</text>
<path d="M318.44982059302913 399.0093701080314 C405.09473115656226 403.01145568652646, 490.97463255319025 397.95301382456705, 620.5432451650623 395.31408792103014 C626.4160778761906 395.3235707767308, 632.6849635712803 404.75370177020596, 630.995844566077 408.0130491025746 C628.0123526591883 419.82340313866735, 627.0536642808543 438.00501852259043, 627.8055644996464 457.4039624325931 C632.4544513233006 456.94267454157307, 627.3940529481573 464.5582696788013, 623.0705837018788 462.1458733908832 C550.1398391217035 467.15891336735143, 479.41399595608056 465.578006072932, 322.4006213945464 464.14439814941875 C316.696637938817 463.5815354593098, 312.2981563441455 460.4277357474966, 306.3867488257587 456.7525681979954 C310.35919215426594 443.53961298838254, 310.8114054177776 431.43440398797395, 310.1795493848622 409.6283566825092 C306.79503929689525 400.21905293305684, 315.7528749107318 395.5964067570865, 319.60542140081526 398.8964387528598 C320 398, 320 398, 320 398" stroke="none" stroke-width="0" fill="#ffe8cc" stroke-linecap="round" stroke-linejoin="round"/>
<path d="M318.90228739427766 398.87254317795936 C378.743386703971 399.7900362696918, 440.4936278409241 398.6812420944763, 619.1944139586792 397.5503842019711 M319.5626838493075 397.4998091232232 C413.3847230220317 399.8827433389142, 506.7538111031352 400.13517988548, 619.284721552287 397.2820758486384 M620 398 C626.5192475096387 396.8249469511211, 630.0142775662243 402.8695517166452, 628.321162379533 407.82922243997456 M619.5025050051511 399.01910364553333 C626.89394147149 396.5871794751659, 631.3404457333312 404.45314612933714, 628.3348845699057 407.2430739179626 M630.7500752918422 406.6844125159085 C629.1883705585375 424.0702122025192, 628.764898750104 438.5261664606631, 628.4609342806041 455.55865904167297 M630.7178396288306 408.8367232795805 C630.3813295087292 419.1040020655841, 630.3775050720647 431.4092687513679, 629.2756900493056 453.7343700286001 M630 454 C631.8711813814938 458.11931358585787, 625.7373596207303 465.71466145440934, 620.7513011105359 463.055906676501 M629.0230657942593 454.00895469114187 C628.7859887280688 460.3747401058553, 624.6109064160911 464.31202031288296, 619.5996805241332 465.0085804310813 M620.1564617785731 464.81158390428095 C510.6850909827645 461.6981794323922, 401.7588922077704 462.41526449125263, 321.4742443871336 464.5879225242705 M619.6749031622089 464.548766386776 C550.6789264584252 462.63267419069484, 481.3224839365559 463.1507944232012, 320.0341634599547 463.85284007313777 M320 464 C316.37184877385664 463.68375365659597, 311.4727575428784 457.60219978104067, 310.22402101829647 452.7185741893947 M319.2140397913754 463.5147694818676 C312.29331781448144 462.86581365618855, 309.74099787738174 457.2713865923761, 310.9633081128821 455.43591693077235 M310.0634260646999 453.83956912830473 C310.89663063301896 439.2893359147012, 308.9583364368901 426.3271283663809, 308.15169289037584 408.96751133278013 M310.60202956832944 454.76929283104835 C309.7837232573852 443.92379999570545, 309.88977583488077 432.34876576326786, 309.6535735312849 407.947928654775 M310 408 C309.0120618708432 400.5157199724512, 314.76753351678417 399.5819795124233, 320.3281892903149 397.62523279115555 M309.3330441839993 406.3758058302104 C309.117258492969 401.9218666071566, 316.77173737944383 398.3466339555755, 319.9117146017775 396.43554240141066 M320 398 C320 398, 320 398, 320 398 M320 398 C320 398, 320 398, 320 398" stroke="#e8590c" stroke-width="2" fill="none" stroke-linecap="round" stroke-linejoin="round"/>
<text x="470" y="425" text-anchor="middle" font-size="15" fill="#1e1e1e">2 · Pre-decision gate</text>
<text x="470" y="446" text-anchor="middle" font-size="12" fill="#495057">required steps · legal actions</text>
<path d="M355.09385581544336 535.8739072675214 C438.5520096014389 536.0241580261351, 521.0864848083186 536.9925525195968, 587.8835485441901 532.9846366043821 C588.832462475269 537.2245528924279, 595.7926703867503 536.0693913230608, 591.8748380896635 545.7094261485151 C595.900921836974 551.8098117054441, 593.0522881095427 562.3885944996961, 592.8682963537983 577.5332942006178 C598.3275534617715 585.4560006683757, 590.159519841901 589.8106975820847, 588.0443580227904 587.6061181155034 C508.252115472626 585.3639351950923, 431.11418399204365 587.3862455227052, 355.40882691180207 587.1604955962479 C346.08494983203053 592.1849327701144, 341.68974619181824 584.4612727578794, 346.3236966934986 577.1630918729119 C342.7951312624421 564.7326702260413, 343.8828534119334 554.6894842137582, 347.49953060923144 541.8420382109471 C344.2823326009326 535.3541321176971, 350.9601966777751 534.4254237052985, 357.82648062584923 537.2462903675623 C355 534, 355 534, 355 534" stroke="none" stroke-width="0" fill="#d0ebff" stroke-linecap="round" stroke-linejoin="round"/>
<path d="M356.27764558221673 534.0866751842848 C401.0313422389565 536.8795823233279, 448.8338767366396 536.5820280492234, 585.1429141823648 535.613928933779 M354.8066564451553 534.5488370907542 C432.6536319279431 532.6781027119232, 508.6893800326405 532.4622901217347, 584.5454147769951 534.7321783318921 M585 534 C589.8982641767775 532.3384864074178, 595.2773724648171 537.923401683935, 593.6887108120136 544.9596067083069 M583.6942760470323 534.7990662974305 C588.4291953870393 534.2389369532979, 594.6856726388866 536.6111041971557, 593.7686297603184 542.507160331211 M596.0438284290024 543.242096370738 C596.440772062717 553.1520283012651, 596.6996555955988 563.5100379104726, 596.1093065422959 581.5361031684093 M594.5664996133652 545.002836749563 C595.580233437609 552.779565348709, 595.7512496494166 560.5791980101261, 595.0767604680266 580.9045521131251 M595 580 C594.5866472723894 586.7733330061724, 590.3087976258313 589.5986056816764, 585.8701053234748 590.8540694546886 M593.8948602023535 577.9968278032727 C596.0497799250717 587.9196106311697, 591.6860338709987 589.4193961592531, 586.696125545972 590.3462296157097 M583.9245829080958 591.649264688421 C495.3051930991266 589.4073405270994, 404.3691536280491 589.5294313802799, 356.7056428453219 591.081724534614 M584.1240548736512 590.6253990184451 C524.0112279292913 589.6359390411197, 462.19884111324967 589.5177980695702, 354.2603393148146 589.9338764143281 M355 590 C347.6882944518635 592.0330767256207, 346.44662244049834 586.2346727928211, 344.0958552273922 578.2276814472862 M355.31879144934936 589.582051543612 C347.70544970251433 588.114180891863, 345.63583112227263 587.9069507212955, 347.31157095091885 579.1813718028878 M344.10356881739574 580.9703845086508 C343.8654417291675 571.9493685281835, 343.0713852748666 562.482545949053, 343.5121800941415 545.4453243049793 M344.1833641336765 579.2700966990087 C345.41223262283205 566.6099824505392, 344.3852040577233 555.1149292467627, 344.24538909508846 544.7770090153906 M345 544 C344.4083977821283 537.0464936170662, 350.74213272574633 532.0603953254409, 357.00436384407806 535.447117490787 M344.7427543583326 545.8956310731359 C343.9798525968427 536.7918546948844, 350.1567200826835 532.0467020370578, 353.39866104351825 535.087231668136 M355 534 C355 534, 355 534, 355 534 M355 534 C355 534, 355 534, 355 534" stroke="#1971c2" stroke-width="2" fill="none" stroke-linecap="round" stroke-linejoin="round"/>
<text x="470" y="556" text-anchor="middle" font-size="15" fill="#1e1e1e">Verdict (LLM)</text>
<text x="470" y="577" text-anchor="middle" font-size="12" fill="#495057">drafts a disposition</text>
<path d="M321.7121237257815 632.2239792003674 C385.6032658696091 628.7591569854037, 454.09202368262277 630.0621478016143, 619.0058227121508 630.933944631116 C628.6488470743475 631.725535008125, 628.9003772022203 634.7850808759155, 630.1538316132501 643.4058031944558 C632.209632047454 649.450353400223, 627.4710529709254 658.0804367328062, 627.9310282079502 685.0626259686426 C626.8006556002423 693.9693267951784, 622.9249867356447 695.0631254853681, 623.0181323437021 693.0663628401235 C549.9964559985121 696.8220178396308, 480.1855844357539 696.4659621706763, 318.30479249409194 696.3825303118704 C312.8732617252441 693.388330080919, 308.481336039491 688.4948097682623, 308.8606445612386 684.9736155478283 C312.66154150045475 675.5929140707478, 314.3847725359257 662.4789376536385, 307.4195118336007 641.4557197393849 C311.76962590496987 637.8892113023372, 316.1675184448184 633.2544406535104, 318.64753985088316 628.1961419822649 C320 630, 320 630, 320 630" stroke="none" stroke-width="0" fill="#ffe8cc" stroke-linecap="round" stroke-linejoin="round"/>
<path d="M320.2224022938008 629.277011259456 C381.3335243793019 629.5651666338329, 439.6364783443344 630.1605432440161, 621.0521785385691 630.1545484688021 M320.1037098617498 629.9072691251585 C426.8725787488677 629.6014360671571, 532.5091183700632 628.9766238426033, 619.9309104899777 630.4413501110249 M620 630 C627.4772808439163 632.0520258637146, 630.5404673634097 632.9772516512247, 629.0562592444942 642.0899909766391 M622.0860470889136 630.5790289493277 C624.7944493025885 631.8906944314298, 628.030899544442 633.5990622649742, 629.2023749507312 637.7712467444595 M631.3375815661624 639.7997802255675 C629.496984771749 656.3177298860625, 630.438223645946 672.461680332385, 629.5576788039878 687.5135472951457 M630.5151595978998 639.0689502195455 C629.50485696779 657.8751689043827, 629.8507138280701 674.6892078139819, 630.8778308867477 685.9747341976502 M630 686 C631.502113163285 691.227352426487, 624.8802356309322 697.6825499089434, 620.9889095364139 694.4522322328761 M628.7666546104476 686.1847009154037 C628.4835711220745 690.6344811564842, 623.9311613259064 694.5267720056232, 618.9625705678109 695.6838788003381 M621.0677854101209 694.9543191463043 C555.4205771813282 696.0087268267582, 491.3905835750846 695.502304473857, 321.4687716360614 697.2785483179597 M620.3536072340596 696.5303336940073 C530.2229864549606 694.6470568232528, 440.60014618960224 695.4650066418013, 320.22950008995093 696.0330664208992 M320 696 C313.20474012987034 696.1823997946456, 311.4204873381183 690.6671458046017, 307.96768943648783 687.9367887051776 M321.4235431073233 695.6493336053566 C313.1175815905472 698.1925481275376, 311.5306643671636 693.712514850215, 308.82983378895557 687.7568266750034 M308.14371157009157 683.9011998889968 C311.0535998524372 675.5384472409263, 311.4037811399642 668.8960557302461, 308.8726672979072 641.9231372771785 M309.86469869902356 685.8709005669691 C310.9154501955006 673.5966166620143, 310.8553404877875 662.2819962435402, 310.937204658892 639.5060893760062 M310 640 C309.8047336934134 633.5772672616812, 312.5167319347085 628.7388111384586, 319.48053839784114 629.0690021904186 M310.15246453266593 641.2154563160614 C308.8424467007164 636.491842782612, 313.5417027859231 630.5767701185401, 321.71560748525894 628.9089209348615 M320 630 C320 630, 320 630, 320 630 M320 630 C320 630, 320 630, 320 630" stroke="#e8590c" stroke-width="2" fill="none" stroke-linecap="round" stroke-linejoin="round"/>
<text x="470" y="657" text-anchor="middle" font-size="15" fill="#1e1e1e">3 · Post-verdict guard</text>
<text x="470" y="678" text-anchor="middle" font-size="12" fill="#495057">override ↑ · interrupt · commit</text>
<path d="M317.91689969215776 759.4049081465354 C408.57072102613256 757.6330076348422, 498.363907047339 759.403526990138, 620.9502992856951 759.317497386159 C626.065231673426 762.2265171238221, 627.0080840176903 769.5007704287702, 633.4328251368366 769.7021802403964 C627.7092092785248 787.9545357753523, 628.480684852899 806.8995603266172, 627.9937600621022 814.5919577366673 C627.6737577387132 817.0826529219811, 628.0904536293884 822.3155533886514, 622.9919066646137 820.5266075647436 C519.9247644369165 822.2969761757704, 420.57137867559067 819.8401585195486, 321.6832536438647 821.7884085930962 C314.6615736184576 823.9917273917235, 310.27292588716375 821.9283467786452, 306.39759242897856 814.7841392227449 C308.4396544095045 796.7850523048081, 310.79839433095515 783.732179872226, 309.73949305797 769.6694012678229 C306.8569192090072 769.0242904869775, 316.37484021186174 760.6834576017224, 321.86859907591713 762.5459935969673 C320 762, 320 762, 320 762" stroke="none" stroke-width="0" fill="#ffc9c9" stroke-linecap="round" stroke-linejoin="round"/>
<path d="M319.3425423435624 760.4792453002043 C379.54875841696736 762.7626079159032, 440.7478209960396 764.2100699187858, 618.9012260285141 760.9167132022175 M320.37422286797096 761.3410404261261 C432.84654791228564 762.7706585312784, 546.1567307035272 763.2471393211649, 620.254004958823 762.2510285422181 M620 762 C625.8562975110551 763.5655653200113, 630.8035622620024 768.2311016185145, 629.4238076769747 771.0203752449713 M621.2778181307949 762.358991601225 C626.1597032181378 760.7124519095617, 631.2061264499976 766.5870203327928, 629.6361201411439 773.8653331577079 M631.6313347033225 772.357464080397 C631.7336686581066 786.826569462847, 629.1572628736188 795.8995987382717, 628.0060510656797 815.4909914218821 M629.3638195824344 771.235063689528 C629.6706412634393 786.3256236249115, 630.1913387721917 799.5089199475478, 629.5789013054688 813.0449162821751 M630 814 C629.2175790541805 817.6813718468015, 624.4516736360332 823.5664941362105, 621.1077137493528 824.2503950110637 M628.6384490185417 812.1725740275346 C630.7473623190774 820.1793516817986, 626.006288780814 821.6341478519934, 621.0590155896498 823.0215279849665 M619.9835298258948 823.5656041673161 C547.78832028061 825.9339592239412, 477.74634665874163 824.8157831651591, 321.46603526052525 822.5440264148043 M619.923000569985 824.521117347623 C519.9950164532283 823.4242068395317, 419.46901861612537 823.6221127511013, 319.55720970494906 824.12317959478 M320 824 C313.7211858078772 822.3317228636704, 311.3943522357382 821.2996188163822, 311.03952364558353 815.445895963069 M318.3282947652973 823.716615667101 C313.5297134785801 825.4409153632121, 307.5954976120545 821.5180789791345, 310.1780966269923 813.5022815471189 M311.3838543227874 813.0320152693428 C309.06486550428815 800.0311289465986, 310.55928453364317 782.516771497298, 309.23315450167286 770.2009502493777 M310.54603326437064 814.4717044349294 C309.3781366917985 798.3629274157342, 310.284945841481 783.0084163248073, 310.5290202226955 772.3351697366219 M310 772 C310.20106960469855 766.1080409062962, 313.4913311436707 761.4172269514762, 321.1567129516043 762.8908868900501 M310.5621747069992 772.5352815589868 C308.7050408045901 767.3618308703396, 316.7566854891628 760.2768382000224, 320.20255392699966 763.560610201587 M320 762 C320 762, 320 762, 320 762 M320 762 C320 762, 320 762, 320 762" stroke="#e03131" stroke-width="2" fill="none" stroke-linecap="round" stroke-linejoin="round"/>
<text x="470" y="787" text-anchor="middle" font-size="15" fill="#1e1e1e">4 · Safety floor — always on</text>
<text x="470" y="808" text-anchor="middle" font-size="12" fill="#495057">non-overridable · every close site</text>
<path d="M354.4761407132966 853.695931539624 C441.34404631361156 862.1101113472713, 520.8876539053167 858.4144818999483, 582.065591929493 854.988588556908 C588.4816162725044 854.7274992395193, 597.5157908331603 858.816459981625, 594.3118186604231 865.398557286337 C594.0513930704259 877.0832003790886, 592.9329232957028 887.5676483776421, 593.0564919162541 898.121289504692 C593.546859877184 901.5959790487839, 590.8559205231321 903.5679812919349, 587.9656809855253 909.3868522893638 C531.4545293693411 910.1982459725034, 479.35913955108884 904.9154999394298, 354.57731722121827 906.7194174277976 C351.4498855116712 908.5951247025281, 347.06451573483645 901.961883789028, 346.3345402967185 898.5946628976614 C348.1517087143101 890.0660159531981, 343.74595752174037 880.3630729194731, 347.05947428233924 867.2830827962607 C344.34421251304445 862.1593696716177, 351.58216197890505 857.5124745499343, 352.6896583009511 858.8958452116698 C355 856, 355 856, 355 856" stroke="none" stroke-width="0" fill="#d3f9d8" stroke-linecap="round" stroke-linejoin="round"/>
<path d="M353.21807645208276 856.882448486399 C401.9632705476313 853.3384099761273, 445.5554654250363 856.0038433491302, 584.8030764842487 856.8794331658324 M355.7473211985739 856.3648063616447 C445.88562445929625 857.6788135273539, 537.4938295765573 857.7226933463428, 585.6689229702346 856.0703661917191 M585 856 C589.2353141781939 857.079104776308, 596.066657160595 861.2849515858042, 594.7913561094553 866.1507595133037 M585.4695891726763 856.1389542531222 C592.524957133687 856.3642093876936, 594.551353355553 861.5749784006114, 595.0698653315567 867.1294195709564 M596.9250878404825 866.9151479352265 C594.7013841454126 873.8292861741036, 597.0073337022401 878.7252714131027, 595.6544233273714 897.4684355486185 M595.3124795669689 865.4011771595106 C595.7263956640847 874.9635796589777, 594.3219338213094 882.7036347081885, 595.3799717241898 896.2150983667001 M595 896 C596.1330449450761 902.3353912671162, 589.023111641134 907.6504383634776, 586.2265179622918 908.0485577892512 M593.5102434266358 896.3604471396654 C593.1811535160803 903.7242222071131, 588.2514162357216 907.5715236983634, 583.3254606114887 904.3591771695949 M583.7241353770672 906.2050344110315 C526.6639583110218 905.4183284923513, 465.58118402341495 903.4131458479135, 356.6961275467606 904.7126196787676 M584.4116275984894 906.5933506806585 C500.66805638080626 906.3669143840541, 414.94958062683963 905.8776090959186, 355.49243341259233 906.2472302440475 M355 906 C349.23763148588404 906.6810459326953, 346.36821713335814 901.7320918281628, 344.91135785467924 896.9550032209605 M354.4330464232713 905.7838977288454 C348.941845366613 906.6892825988866, 343.4903308569454 903.3236431080541, 346.5263594650291 898.0777364192344 M345.4239970754832 896.1628306496889 C347.0449941355549 885.847933262214, 345.48365090673786 877.3857324842363, 344.5936417054385 864.6787632215768 M344.1273678297177 894.9725083028898 C344.8779985799454 887.8490285543725, 344.6517265870236 879.1744171759113, 345.1208357864991 865.0642500972375 M345 866 C345.5974055159837 860.6388145509111, 349.4659303526329 856.0956427644938, 353.6328875053674 854.5127715896815 M345.9718848813325 865.8551068019121 C343.5676349084638 860.2318189580674, 350.14166819240245 856.8069062815048, 353.6895003687404 855.3822994683125 M355 856 C355 856, 355 856, 355 856 M355 856 C355 856, 355 856, 355 856" stroke="#2f9e44" stroke-width="2" fill="none" stroke-linecap="round" stroke-linejoin="round"/>
<text x="470" y="886" text-anchor="middle" font-size="15" fill="#1e1e1e">close · escalate · human review</text>
<path d="M683.6080901042558 120.11742253294214 C724.7342461000196 125.1844241844071, 771.9998080139048 121.474044491495, 871.1993345544673 123.27827869346365 C880.2980008715829 119.22848135521636, 882.6234976486303 127.53214953447971, 884.5908121840097 133.09493433227763 C882.2545511298524 147.09077879255636, 879.2461360060322 157.99356404813005, 880.119223770406 181.65062127271668 C881.4199620156548 186.1093051755866, 875.6213874168759 184.82040919521825, 874.9394553064369 190.84709701398387 C809.191267787572 183.8103907595249, 741.4102174160071 182.1303469697805, 678.7099481836892 185.30877486458047 C672.8381974048848 185.7985220133327, 668.4561055825092 181.99542079941088, 670.8714881644585 175.0051865725778 C671.011065519738 159.37286569429563, 674.6408232131479 143.84573815213517, 668.9794555067085 129.4967643246986 C673.8315058170817 127.29444885625784, 678.7894837459485 118.9414914981462, 682.9107175259851 119.84569682637229 C682 122, 682 122, 682 122" stroke="none" stroke-width="0" fill="#ffe8cc" stroke-linecap="round" stroke-linejoin="round"/>
<path d="M682.9036719829776 121.9502903087996 C718.6882667507045 124.06387698091102, 757.793775310088 124.16178858018947, 873.0350427092053 121.34661604901775 M681.1481336004566 121.65702764247544 C724.4302540210541 120.5402332496224, 765.828494541673 119.99370214309077, 871.1276029757689 121.82324334387667 M872 122 C878.8143308453326 122.59264423260466, 883.3297520591877 126.33880155309383, 882.1589045419357 133.2811437816359 M871.6613602145575 121.91891690501943 C876.0602110492363 124.01596686582546, 879.8965802611085 128.56293646842985, 882.5036105219693 132.3935059842048 M880.0188409776426 133.4728317900561 C884.0599060915662 148.28900641137733, 882.8482109897091 164.4649511399679, 881.1027955890634 179.4458796753548 M881.1611395515035 131.56729062949307 C881.7231481563813 143.08191916258076, 882.5935269620783 152.85911640790292, 881.0810421429109 177.2852804512251 M882 178 C880.8485108359716 182.78941068743075, 875.594549646235 187.53438259074466, 873.3453221752309 187.64672056743876 M880.38203783473 176.3483202517964 C882.4449447130831 182.43909273242764, 877.3265436906293 188.67889954473358, 872.4219056333276 185.6968263542233 M873.2203201682307 189.07484066328033 C819.1025794184767 188.88378932778258, 765.183181659598 189.890413314146, 683.9917829812505 186.9562879397534 M872.8205503411125 188.68551584337837 C834.15543911024 187.36631616427098, 793.7588466610293 188.04508279486095, 681.6625450841617 188.41375756864437 M682 188 C676.754077163891 186.8303690017201, 673.3420820309781 182.1645648399433, 670.7831920637749 178.46411047885195 M682.5377980812452 187.85117979058995 C676.3539772546459 187.93764983456117, 671.3851641018363 185.12920723697357, 670.0446223030658 177.82319129134993 M671.464139828179 179.29364603003486 C672.1550536815645 162.61211423026398, 671.7379481945754 149.94944677604363, 671.9541289092042 131.15657619377598 M671.8087023950648 177.5733121708501 C672.5130406026738 160.65584166147747, 673.2536874671475 141.98184196394868, 671.7126513503026 131.89333045785315 M672 132 C672.9937414272688 127.16958819552605, 677.4405295615951 122.77405857751145, 682.3090620591305 122.33465628931299 M673.3815950556658 131.17493204483762 C670.4302290123375 125.10180704579503, 675.5266508956422 120.5069743629871, 684.0064468104812 124.03398873503785 M682 122 C682 122, 682 122, 682 122 M682 122 C682 122, 682 122, 682 122" stroke="#e8590c" stroke-width="2" fill="none" stroke-linecap="round" stroke-linejoin="round"/>
<text x="777" y="149" text-anchor="middle" font-size="15" fill="#1e1e1e">Deterministic close</text>
<text x="777" y="170" text-anchor="middle" font-size="12" fill="#495057">operational class · no signal</text>
<text x="660" y="284" font-size="12.5" fill="#1e1e1e">Legend</text>
<path d="M662.2231405872107 299.17928524553776 C670.4392046046257 299.9076113539338, 677.6402143007516 297.515805151999, 682.4408062022925 297.15619085848334 C683.9477850195519 303.044883377105, 684.7654962353408 298.70735238822783, 684.5111623100936 307.71587053015827 C687.2103203164041 305.3602376705408, 685.3039313755929 308.45365967661144, 685.2924367836117 312.1359817239642 C686.2851435013115 313.5233755585304, 686.9372141611329 321.37897663637995, 683.8344936914742 320.24498115107417 C678.4809355175495 318.0661968557239, 672.6532383328677 320.2885660688281, 666.0252704852819 318.9115950447321 C660.4379504311331 318.3910566397011, 658.29505501315 312.3619635116807, 656.5055053286254 311.8477180786431 C658.6420820355713 311.92205414652824, 660.3020776772797 308.9639246228337, 659.7273483493924 305.4321735212207 C657.0020748205483 302.19223893764104, 664.6901305321105 299.7767109207809, 661.8201071090996 300.1902633480728 C665 300, 665 300, 665 300" stroke="none" stroke-width="0" fill="#ffe8cc" stroke-linecap="round" stroke-linejoin="round"/>
<path d="M664.774322745204 299.1332337409258 C668.528066110611 300.86335935860876, 672.3613474398851 298.6232896831632, 679.5537282437086 301.4160520583391 M664.6320264831186 300.75036661475895 C668.9957691177726 299.53655128359793, 672.3712320283056 300.2644085395336, 680.6710171237588 299.667580960691 M681 300 C683.4476142388336 300.1011273227632, 687.516997102648 301.20571817340937, 686.5013837851584 303.2966933809221 M679.9077440537512 299.7132186256349 C683.6686784791327 298.8930708037689, 687.0207687301561 300.5659496170902, 686.8927197260782 304.67389752138405 M685.3571787104011 305.7735297694802 C685.7772448451817 306.70930934250356, 685.5755916030705 309.44992442578075, 686.6671115621924 313.54221859127284 M686.0418283946813 304.8984396569431 C685.9645521172881 308.25235892310735, 686.3627309569716 310.9767486177385, 685.9550904996693 313.17350953742863 M686 313 C686.7275968827307 317.59055004385624, 685.5167953234665 319.5412636362016, 682.3944060839713 319.37607937678695 M684.3369830884039 313.51066034659743 C683.9797484857961 316.20058161528175, 685.5507796036578 317.7964527534321, 678.7984291953966 319.77569098938255 M680.803208014369 319.45406160652635 C676.2889488637447 317.08259329169994, 672.4827433019876 317.2139225420356, 666.5147057980299 317.56357670128347 M681.177773667872 318.51272184699775 C677.9853287741541 318.25709395229813, 673.9247213438153 318.13001346409317, 665.6443705096841 318.4088729605079 M665 318 C662.9941670510419 319.1235162578523, 661.2532827891409 316.9749383714548, 661.7666916884482 312.97449308261275 M666.5643330849707 317.9223446212709 C662.5137730517857 317.2247781621292, 660.2666641397402 317.10611314685406, 659.4217953724786 315.28442491758614 M659.4302028879523 312.32360434681175 C659.2982693062722 311.14975266456605, 659.5752720700204 309.13210368007424, 660.1198537573218 304.8607196822762 M660.1866807468235 313.06632991954683 C660.1382701975108 310.9586942322552, 659.9887714248896 308.1036578796804, 659.7350350148976 305.27520412132145 M660 305 C661.3238831795752 303.40353752555933, 664.0842679354795 301.38330894336104, 666.8907015360892 298.0538485608995 M661.7060049809515 303.5664355121553 C658.3741172535345 304.4525216144943, 664.3952249148361 300.98765947092323, 665.4698983354494 299.86255047786983 M665 300 C665 300, 665 300, 665 300 M665 300 C665 300, 665 300, 665 300" stroke="#e8590c" stroke-width="1.6" fill="none" stroke-linecap="round" stroke-linejoin="round"/>
<text x="694" y="314" font-size="12" fill="#1e1e1e">triage-policy gate</text>
<path d="M663.9545786067844 329.82392808705566 C673.5965114247798 328.3397317323983, 676.4295547774434 332.20419865706566, 678.7448330757022 329.0773972204328 C681.4339970618985 331.58637948967515, 682.9243461098522 331.34964492614057, 687.7015343870968 332.1663995478302 C684.9706643269509 337.02024559289214, 685.2087290881127 340.3767816658318, 685.3168513430655 342.73118111476305 C687.1346482846886 345.9687739521763, 684.7630738415322 350.65160919092597, 683.8089768145234 349.71981385610997 C677.1916333681345 349.2300034175813, 670.6363462772965 349.2224516044557, 663.8514461681247 346.15798154622314 C662.1779295704761 350.9240918610245, 660.0382235135883 347.6486481704316, 661.3090221729129 343.6093086812645 C660.3872181034237 341.3901226180792, 659.4145469331891 340.5733887769282, 660.6302599610389 333.95857930526137 C659.4221439812333 331.3506943605342, 664.8918490081527 332.52926795147357, 664.9541106794029 332.47660545967517 C665 330, 665 330, 665 330" stroke="none" stroke-width="0" fill="#d0ebff" stroke-linecap="round" stroke-linejoin="round"/>
<path d="M663.8601335033775 331.50434153228997 C666.6723349809647 330.001471337229, 670.313392354548 328.64673267260196, 680.5188525184989 330.12992046028376 M664.9130940325558 330.1620455019176 C668.8889614216982 329.47843632638455, 673.923606429249 329.7505554908514, 681.0067176945507 329.4698336593807 M681 330 C681.9038205884896 329.6378315668553, 687.7675636727363 330.3046229041615, 686.8514299113303 334.3732498269528 M679.1380021888763 329.5036592464894 C684.9689203034653 330.46617316389455, 685.4447943544947 331.5068620626317, 687.3058103836141 333.97302743876355 M685.4690846674144 334.38598076179625 C686.6151530066877 337.2729529872537, 686.6734446565061 338.4515885733068, 686.0760152809322 343.5336258776486 M685.603222674504 334.9617209788412 C686.288703854531 337.84077088721097, 685.9534886555374 340.1226402383298, 686.2602601829916 342.8192931886762 M686 343 C684.5518501121551 346.118187587013, 685.1086410426102 347.525972424075, 682.507552953437 347.0886153560132 M684.2148825246841 341.59434902481735 C686.1357401019893 347.671886877486, 682.9270914654746 346.94633451187985, 680.7950435019098 349.14488068902864 M679.6766482815146 346.88919699341056 C675.3319138258696 346.6413464014232, 669.0521680787206 349.3370532934367, 666.5118626579642 347.92236259132625 M680.7303661234677 348.5031459085643 C675.9915063999593 347.24166375070814, 672.4355453886092 348.0703472462297, 664.9458495266736 348.50250205919144 M665 348 C663.4860200777151 347.3609667997807, 661.2283922154456 345.4820555255315, 660.6922480780631 342.5069761853665 M663.6164775211364 347.98642277531326 C662.906279611817 346.5089374342002, 661.1188862777315 346.9209361267774, 660.705855218228 343.1372390815057 M660.6645429842174 342.7543911583722 C660.1735449498148 340.7947444200516, 659.2864478056879 338.81650713607667, 660.2571822158992 335.04274367168546 M659.6462367717177 343.29520758353175 C660.3188792040944 341.01065070666374, 659.7377304723858 339.5004464756697, 660.3795361820609 334.79104425869883 M660 335 C661.7013459522277 333.90903623471644, 661.0124576583006 328.0294192414731, 664.4870582539588 329.7889768462628 M658.0962051469833 336.91865002922714 C658.243254495319 333.37631979328256, 662.8571132036359 328.797248119954, 664.028894946631 327.78796882713215 M665 330 C665 330, 665 330, 665 330 M665 330 C665 330, 665 330, 665 330" stroke="#1971c2" stroke-width="1.6" fill="none" stroke-linecap="round" stroke-linejoin="round"/>
<text x="694" y="344" font-size="12" fill="#1e1e1e">agentic / LLM</text>
<path d="M665.6860166263581 360.4685709285736 C667.7938182449341 362.53185211086276, 674.5788952541351 361.1325921621323, 680.8088599491119 360.9986035823822 C686.1202091042451 360.12787560224535, 688.2831959843636 363.9919374640533, 683.6919064640999 363.81692856550217 C685.8990083374978 367.08025351524356, 685.4015268006325 369.09990365505223, 685.3412659025192 373.3263805055618 C687.9841530680657 378.4141723458222, 682.5889335219316 379.92424174547193, 683.7834599375725 379.19464656114576 C679.1023312187194 380.96980997943876, 675.0194542217255 378.7323371400833, 667.4376218509674 379.1643680477142 C663.9179087098189 376.2571270823479, 661.7813920140267 375.7353328291825, 658.9125390172005 375.37089928388593 C658.9643541712761 369.25819108963015, 661.1190161890984 368.98285293102265, 658.6531715726852 365.3649850893021 C661.8422131419181 360.5091497834274, 665.0935674841949 358.08182498216627, 668.0881142497062 357.5629475712776 C665 360, 665 360, 665 360" stroke="none" stroke-width="0" fill="#ffc9c9" stroke-linecap="round" stroke-linejoin="round"/>
<path d="M666.1459442615509 360.67544932365416 C668.0166038513183 359.45958331584933, 671.4654372692108 358.9901756620407, 681.4839767932892 358.8437888622284 M665.1941615819931 359.57372438907623 C668.7821537256241 359.1003213691711, 673.8759808301926 360.51670244216916, 681.3424182653428 359.2720863580704 M681 360 C684.3600269381456 359.1745358109474, 684.0181302428246 363.4035276349136, 687.2014760375023 365.44980627298355 M682.3682603240013 359.2940998673439 C681.669162127798 362.0392755240202, 683.8688199788332 362.44777450817315, 687.71890104115 363.272157356143 M685.5809906244278 364.59843175411226 C685.8530611681938 367.83659663200376, 686.1712977099419 370.6532527208328, 685.4849189996719 373.52503316402436 M685.9646169543266 365.0250023007393 C685.6528555917739 367.4291828513145, 686.184246354103 369.26853185892105, 685.765429866314 373.26507683992384 M686 373 C686.3761033415794 374.6458251301697, 684.700486761754 379.5106812119484, 682.6206998229027 378.8011513352394 M684.0927819609642 373.67803770303726 C688.2917317181825 374.54319213969023, 684.9034033272914 376.09621627032755, 682.791657808423 378.5140703886747 M681.7500885486603 377.5243323802948 C674.3748787879944 379.08009951114656, 668.8215928554536 377.94018404483796, 666.5090195178985 378.28114848136903 M680.2829585790635 378.4935699701309 C675.5976840257645 377.82623354911806, 670.9463694334031 378.0106810283661, 664.247328543663 378.59613115787505 M665 378 C663.9778731043883 379.59841734170914, 661.2035016417503 373.9891726796082, 659.6178044676781 372.03945928812027 M664.6686219573021 378.0505009293556 C663.2987861718484 375.79309670627117, 661.9711084157228 376.73575910670075, 661.9899150639773 370.9900532454252 M660.2988830804825 373.18517796993257 C659.4488205933571 370.4397361755371, 660.5976235413551 366.9009105920792, 660.3945106744766 365.2247676610947 M659.9057927966118 372.72408524751665 C659.699488210678 370.26260718107227, 660.2866895198822 367.69723507165907, 660.2240373492241 365.1068843960762 M660 365 C658.0788087248802 360.41453494387355, 661.9406473811217 358.6755295395851, 666.0834149718285 361.52410513162613 M658.486405313015 366.270864546299 C658.1123917371035 362.30011797207084, 661.3190014924355 361.2068367689848, 667.1878915578127 360.3133871763945 M665 360 C665 360, 665 360, 665 360 M665 360 C665 360, 665 360, 665 360" stroke="#e03131" stroke-width="1.6" fill="none" stroke-linecap="round" stroke-linejoin="round"/>
<text x="694" y="374" font-size="12" fill="#1e1e1e">safety floor (code)</text>
<path d="M667.4174546459317 391.11321377009153 C670.9511250650883 391.53997248932717, 673.3682357308269 390.63698566719887, 682.8728868225217 387.15980994433164 C683.6064211465917 388.6693717148155, 686.442045858875 389.434230001966, 686.882278541103 395.4674575831741 C686.5393523480445 397.14026143759486, 685.3063245131523 397.82302564427255, 685.3656804619729 403.92157989636064 C688.8336578514427 403.65957073946805, 680.4147932023309 409.19687430001795, 683.7579430606216 408.6694792661816 C677.8130290693044 406.3736165412962, 667.2425621661544 407.6662226757109, 665.2637975338101 406.4107545492053 C665.6578878491619 408.79016230367125, 663.524560514465 403.82201748793335, 656.516055861488 399.93248988650737 C660.7094902391285 401.60625956118105, 660.2314854450077 400.5923170851171, 659.5560831843317 393.89139087334274 C657.0622823026031 389.66760520632056, 665.295285960237 390.834382012859, 664.0221178200096 389.84928968288006 C665 390, 665 390, 665 390" stroke="none" stroke-width="0" fill="#d3f9d8" stroke-linecap="round" stroke-linejoin="round"/>
<path d="M665.2317550197243 389.84655711501836 C669.3608727216721 388.5976952944696, 672.6174821838736 389.0136186514795, 682.4491010680795 390.757657264173 M665.4752291314304 390.58540327623484 C670.2753460295498 390.6422064119577, 675.428355231136 390.002849393487, 681.6781188361347 390.67433905676006 M681 390 C682.8162332878015 388.7112400550395, 684.2686968129128 392.5024323656657, 687.5515221636742 396.5263627190143 M681.5985184591264 389.0845404881984 C682.9694039521306 389.01237788414585, 686.8928456031717 393.3886869537146, 688.1319916986861 397.17128727352247 M685.6928965814411 394.81088274642826 C686.6909693296999 396.8002402767539, 685.6691507633776 399.65491686835884, 686.4938227184117 403.5164404504001 M686.3260112341493 395.0882836226374 C685.9770073290169 397.01759481541814, 685.7750040526688 398.4144234795123, 686.0705995496362 402.9108604911715 M686 403 C684.2003565710038 407.17346267332647, 684.2923324808977 407.4953899998218, 682.7338466923684 406.51368731446564 M687.9706813972443 401.7617263812572 C685.8477233343758 406.0144974018945, 682.2797151891082 409.8460980287753, 680.1882721149362 407.8832600883208 M680.6235288158059 408.159467767179 C673.4178437501192 408.6388526208699, 668.5910176321864 406.86331479623914, 666.5061763778328 408.6399343714118 M681.4355510346592 408.48399403169753 C675.2038616515696 408.410803347528, 669.4571934781968 407.95101481050256, 665.1488075606525 408.68976025655866 M665 408 C660.4697261310615 407.83586788363755, 661.178611068055 406.4962898336849, 658.543360857293 401.571942390874 M665.7207663934678 408.114579083398 C663.6912927318797 409.67725597834215, 658.2233305537142 406.5505820866241, 658.6739749097266 403.4428674093448 M659.9332231767476 403.61596478149295 C660.4840962368995 400.0847279310226, 660.4687992770224 398.18531404808164, 660.5318391330541 395.40679165050386 M660.1653488215059 402.9529629115015 C659.8800972172618 401.1145636554807, 660.0356485673785 399.0940236676484, 660.0685385163873 394.6227245334536 M660 395 C658.4562714975327 390.92003365303066, 662.8688371039428 389.32163983769715, 663.6797716896981 389.25923341698945 M658.8766054790467 395.6230790633708 C657.9815289788879 391.2239161508591, 664.3808897812352 389.01642541801556, 665.7468881689944 388.2388055256568 M665 390 C665 390, 665 390, 665 390 M665 390 C665 390, 665 390, 665 390" stroke="#2f9e44" stroke-width="1.6" fill="none" stroke-linecap="round" stroke-linejoin="round"/>
<text x="694" y="404" font-size="12" fill="#1e1e1e">outcome</text>
<text x="660" y="442" font-size="11.5" fill="#868e96">The LLM proposes;</text>
<text x="660" y="458" font-size="11.5" fill="#868e96">a deterministic gate disposes.</text>
</svg>