<svg xmlns="http://www.w3.org/2000/svg" viewBox="0 0 1140 220" font-family="Virgil, Excalifont, 'Segoe Print', 'Comic Sans MS', cursive">
<rect x="0" y="0" width="1140" height="220" rx="14" fill="#ffffff"/>
<path d="M172.20227916184814 121.21742157097906 C183.1604290233925 121.29185418173671, 190.22121503148227 120.60779931232332, 213.40106099192053 121.21514099594205 M174.34022085545584 120.6009137091227 C183.24124221457168 120.51514857215807, 193.70399329094215 120.5483361612074, 213.83092598496006 120.82822000654414" stroke="#495057" stroke-width="1.7" fill="none" stroke-linecap="round" stroke-linejoin="round"/>
<path d="M214,121 L203.95602165656462,125.48536498365527 L203.95602165656462,116.51463501634473 Z" fill="#495057" stroke="#495057" stroke-width="1"/>
<text x="194" y="112" text-anchor="middle" font-size="11" fill="#868e96">save</text>
<path d="M434.77381626479325 120.28491783626377 C441.07283040545883 120.82575199991464, 451.51746336631476 121.13769451767206, 474.4868258010596 119.76824294812977 M434.6564218485728 121.73905245717614 C445.3908251771703 121.6320604089275, 456.389897733368 121.15254264507443, 474.208589127101 120.60575429257005" stroke="#495057" stroke-width="1.7" fill="none" stroke-linecap="round" stroke-linejoin="round"/>
<path d="M474,121 L463.9560216565646,125.48536498365527 L463.9560216565646,116.51463501634473 Z" fill="#495057" stroke="#495057" stroke-width="1"/>
<text x="454" y="112" text-anchor="middle" font-size="11" fill="#868e96">review</text>
<path d="M623.7453533677384 119.35241410154849 C632.5852317875251 119.63964981809258, 639.2137117011473 120.94758972302078, 665.5725906101986 121.9213449003175 M623.1726228416898 121.07719120522961 C635.740408139769 121.66897224569693, 647.2758021757938 120.67674912894144, 664.586252269242 120.38328857859597" stroke="#495057" stroke-width="1.7" fill="none" stroke-linecap="round" stroke-linejoin="round"/>
<path d="M664,121 L653.9560216565646,125.48536498365527 L653.9560216565646,116.51463501634473 Z" fill="#495057" stroke="#495057" stroke-width="1"/>
<path d="M912.7168904706836 122.01991036683322 C920.4976331695914 122.77354763627052, 930.5099600359797 121.47748492836952, 953.0583554193378 120.47444685250521 M913.4888238348067 120.41532995328308 C926.0899911023677 121.70588408246637, 938.1617066182196 122.00095561280847, 953.163915411383 120.16082286462188" stroke="#495057" stroke-width="1.7" fill="none" stroke-linecap="round" stroke-linejoin="round"/>
<path d="M954,121 L943.9560216565646,125.48536498365527 L943.9560216565646,116.51463501634473 Z" fill="#495057" stroke="#495057" stroke-width="1"/>
<text x="934" y="112" text-anchor="middle" font-size="11" fill="#868e96">the gate</text>
<path d="M34.110422503668815 86.20467459736392 C82.49672074420377 86.11064109014812, 129.79629994863646 87.24996894108597, 167.39252978833392 82.805412666779 C167.8324624752691 87.2245528924279, 174.79267038675025 86.06939132306073, 170.87483808966354 95.70942614851519 C175.01084876639862 106.89853152064607, 172.16221503896733 122.56603413010018, 171.86829635379837 145.53329420061783 C177.32755346177146 153.45600066837574, 169.15951984190102 157.81069758208469, 167.0443580227904 155.60611811550334 C120.37979149362073 154.09018036866095, 76.30068802246822 156.4694529637089, 34.48098981352523 154.65928867636248 C25.084949832030574 160.1849327701144, 20.689746191818266 152.46127275787944, 25.32369669349864 145.1630918729119 C21.82255527929496 126.49313817238435, 22.91027742878627 110.21042010644452, 26.499530609231442 91.84203821094707 C23.28233260093257 85.35413211769703, 29.960196677775127 84.42542370529846, 36.826480625849214 87.24629036756232 C34 84, 34 84, 34 84" stroke="none" stroke-width="0" fill="#e9ecef" stroke-linecap="round" stroke-linejoin="round"/>
<path d="M35.503165502566844 84.10197440413758 C60.02107278360054 86.40759482289198, 88.12597471261397 86.05751861537341, 164.1681402665563 85.8988069388084 M33.772528965910894 84.64571348489262 C78.4292777616065 83.27731046613772, 120.95509560904468 83.02340433981736, 163.46517497911117 84.86141667575575 M164 84 C168.89826417677756 82.3384864074178, 174.277372464817 87.92340168393496, 172.6887108120136 94.95960670830682 M162.69427604703233 84.79906629743054 C167.42919538703933 84.23893695329781, 173.68567263888662 86.61110419715568, 172.76862976031845 92.50716033121105 M175.0438284290023 93.242096370738 C175.4442021470843 107.54752523871139, 175.70308567996602 122.3010317853652, 175.10930654229597 149.5361031684093 M173.56649961336515 95.00283674956299 C174.45398107878026 106.66760159400292, 174.624997290588 118.35527050071396, 174.07676046802663 148.9045521131251 M174 148 C173.58664727238937 154.77333300617244, 169.30879762583132 157.59860568167642, 164.87010532347486 158.85406945468858 M172.89486020235344 145.99682780327277 C175.04977992507165 155.91961063116975, 170.68603387099876 157.4193961592531, 165.69612554597202 158.34622961570975 M162.7347587657161 159.94037988213822 C113.23917766204104 157.040280123665, 61.018030171189444 157.18392149121968, 36.006709466595204 159.27266201702878 M162.96943994923495 158.7357895201538 C129.52596927131526 158.10954389040825, 94.08294581896625 157.97054960643408, 33.129780244966966 157.92220480055548 M34 158 C26.68829445186351 160.0330767256208, 25.446622440498324 154.2346727928212, 23.095855227392168 146.22768144728616 M34.318791449349376 157.58205154361204 C26.70544970251434 156.11418089186307, 24.63583112227265 155.90695072129554, 26.31157095091883 147.18137180288787 M23.10356881739572 148.97038450865074 C22.882854053576477 135.56551001751794, 22.088797599275594 121.71482892772184, 22.512180094141513 95.4453243049793 M23.183364133676513 147.27009669900872 C24.299470009331593 128.3103890315164, 23.272441444222817 110.51574240871706, 23.245389095088466 94.77700901539065 M24 94 C23.408397782128304 87.04649361706618, 29.742132725746373 82.06039532544091, 36.004363844078036 85.44711749078706 M23.742754358332604 95.89563107313589 C22.979852596842683 86.79185469488426, 29.156720082683492 82.04670203705784, 32.398661043518224 85.08723166813608 M34 84 C34 84, 34 84, 34 84 M34 84 C34 84, 34 84, 34 84" stroke="#495057" stroke-width="2" fill="none" stroke-linecap="round" stroke-linejoin="round"/>
<text x="99" y="117" text-anchor="middle" font-size="15" fill="#1e1e1e">Author in the UI</text>
<text x="99" y="136" text-anchor="middle" font-size="11.5" fill="#495057">draft</text>
<path d="M226.1012947576095 86.72949656873152 C266.7740810637339 82.95622187661597, 313.0895353369492 84.5553865456687, 422.77984313187505 85.14623314174665 C432.64884707434754 85.72553500812501, 432.9003772022203 88.78508087591547, 434.1538316132501 97.4058031944558 C436.1361227170546 105.2904727814719, 431.397543640526 115.76067549530417, 431.9310282079503 147.06262596864252 C430.8006556002423 155.96932679517846, 426.9249867356448 157.06312548536806, 427.018132343702 155.06636284012347 C377.31521424568194 158.65638971802073, 330.866895972856 158.21940149145465, 221.91946657149506 158.46948063790947 C216.87326172524413 155.38833008091896, 212.481336039491 150.49480976826231, 212.8606445612386 146.9736155478284 C216.78669749046676 135.54086369927973, 218.5099285259377 120.37483691070229, 211.4195118336007 95.45571973938495 C215.76962590496987 91.88921130233723, 220.16751844481846 87.25444065351039, 222.6475398508832 82.19614198226482 C224 84, 224 84, 224 84" stroke="none" stroke-width="0" fill="#ffe8cc" stroke-linecap="round" stroke-linejoin="round"/>
<path d="M224.27295502480737 83.11267367688488 C265.6169795638917 83.72058885142485, 303.51453066114976 84.45129641124812, 425.2913419829839 84.18967781498505 M224.12728343490937 83.88619110976686 C295.4321749720007 83.72309128139854, 365.347355289896 82.95625730078433, 423.9152062301166 84.54167035980048 M424 84 C431.4772808439164 86.05202586371452, 434.5404673634097 86.97725165122468, 433.05625924449413 96.08999097663909 M426.08604708891363 84.57902894932776 C428.7944493025886 85.89069443142972, 432.0308995444421 87.59906226497422, 433.20237495073115 91.77124674445949 M435.3375815661624 93.79978022556752 C433.51537023296765 113.30942624825984, 434.45660910716464 132.4450730567798, 433.5576788039878 149.51354729514568 M434.51515959789975 93.06895021954551 C433.5237803219315 114.82430565776303, 433.86963718221153 134.5874813207425, 434.8778308867477 147.9747341976501 M434 148 C435.50211316328495 153.22735242648702, 428.8802356309323 159.68254990894349, 424.98890953641387 156.45223223287613 M432.7666546104476 148.18470091540365 C432.4835711220745 152.6344811564842, 427.93116132590643 156.5267720056232, 422.96257056781093 157.68387880033814 M425.31049634483327 156.71663264580937 C380.5837862124189 158.63444033909073, 337.8418886009224 158.01290661505934, 225.80262798330912 159.569166315158 M424.4339832548277 158.65088018711532 C364.2332497285354 156.7295599690195, 304.65571680128426 157.73343231762513, 224.28166617203127 158.04058252090212 M224 158 C217.20474012987037 158.18239979464562, 215.42048733811825 152.66714580460172, 211.96768943648786 149.9367887051776 M225.42354310732335 157.6493336053565 C217.11758159054725 160.1925481275376, 215.53066436716355 155.71251485021506, 212.8298337889556 149.7568266750034 M212.14371157009154 145.90119988899679 C215.02468821571955 135.8961304182187, 215.37486950324663 127.61142208483069, 212.87266729790719 95.92313727717847 M213.86469869902356 147.87090056696906 C214.89356880970485 133.51680459277705, 214.8334591019917 120.12237210506574, 214.937204658892 93.50608937600627 M214 94 C213.80473369341343 87.57726726168114, 216.51673193470856 82.73881113845854, 223.48053839784114 83.06900219041854 M214.1524645326659 95.21545631606132 C212.84244670071638 90.49184278261195, 217.54170278592315 84.57677011854015, 225.71560748525894 82.90892093486153 M224 84 C224 84, 224 84, 224 84 M224 84 C224 84, 224 84, 224 84" stroke="#e8590c" stroke-width="2" fill="none" stroke-linecap="round" stroke-linejoin="round"/>
<text x="324" y="117" text-anchor="middle" font-size="15" fill="#1e1e1e">Shadow</text>
<text x="324" y="136" text-anchor="middle" font-size="11.5" fill="#495057">matched · audited · non-binding</text>
<path d="M481.1592563039623 80.46104856515304 C522.5684584037401 80.31509237735997, 562.8040039445274 82.72956645637285, 615.2959321714006 80.34184568012134 C620.065231673426 84.22651712382212, 621.0080840176903 91.50077042877022, 627.4328251368366 91.70218024039642 C621.8593966677105 114.48241404229775, 622.6308722420847 137.95531686050816, 621.9937600621022 148.59195773666724 C621.6737577387132 151.08265292198118, 622.0904536293884 156.31555338865147, 616.9919066646137 154.5266075647436 C570.8981748131104 158.01019479815383, 528.7807430642657 154.65980920080563, 486.29546899860725 154.9840317704715 C478.6615736184576 157.99172739172354, 474.27292588716375 155.92834677864516, 470.39759242897856 148.78413922274484 C472.3528397016386 126.3885892261751, 474.7115796230892 108.93925371496006, 473.73949305797 91.66940126782283 C470.8569192090072 91.02429048697743, 480.37484021186174 82.68345760172232, 485.86859907591713 84.5459935969673 C484 84, 484 84, 484 84" stroke="none" stroke-width="0" fill="#d0ebff" stroke-linecap="round" stroke-linejoin="round"/>
<path d="M483.1034187427722 81.92613235646859 C509.3507586062886 84.09700240872336, 536.9520526896231 86.07092010460329, 612.5015914878808 82.52271149391308 M484.51033128318375 83.10137056368403 C532.803619982535 84.43749530342873, 582.2395032577682 85.08727668700274, 614.34638897744 84.34233000981621 M614 84 C619.8562975110551 85.56556532001123, 624.8035622620024 90.23110161851439, 623.4238076769747 93.02037524497136 M615.2778181307949 84.35899160122499 C620.1597032181378 82.71245190956164, 625.2061264499976 88.58702033279278, 623.6361201411439 95.86533315770794 M625.6313347033225 94.35746408039704 C625.7865383188511 112.4713272578083, 623.2101325343633 125.18911432819442, 622.0060510656797 149.49099142188206 M623.3638195824344 93.23506368952803 C623.5595795650827 112.18100972152315, 624.0802770738351 129.21969214077106, 623.5789013054688 147.0449162821751 M624 148 C623.2175790541805 151.6813718468016, 618.4516736360332 157.56649413621054, 615.1077137493528 158.25039501106366 M622.6384490185417 146.17257402753458 C624.7473623190774 154.1793516817987, 620.006288780814 155.63414785199333, 615.0590155896498 157.02152798496653 M613.9775394669734 157.4076102727093 C581.5863118750043 159.8699025335582, 552.1314725848846 158.34503521051724, 485.9992462239228 156.0144749783911 M613.8949951451738 158.71065268176608 C570.9480468130205 157.77390740164088, 527.1855814844836 158.04379357494878, 483.3961626645643 158.1679811845999 M484 158 C477.7211858078772 156.33172286367045, 475.3943522357382 155.29961881638224, 475.03952364558353 149.44589596306906 M482.3282947652973 157.716615667101 C477.5297134785801 159.44091536321213, 471.5954976120545 155.51807897913454, 474.1780966269923 147.5022815471189 M475.3838543227874 147.03201526934282 C472.9665223778626 129.6267508189194, 474.4609414072176 107.70801524193956, 473.23315450167286 92.20095024937764 M474.54603326437064 148.47170443492942 C473.38766761007815 127.92322015403771, 474.29447675976064 108.12900180141442, 474.5290202226955 94.3351697366219 M474 94 C474.20106960469855 88.10804090629611, 477.4913311436707 83.41722695147618, 485.1567129516043 84.89088689005003 M474.5621747069992 94.53528155898675 C472.7050408045901 89.36183087033965, 480.7566854891628 82.27683820002247, 484.20255392699966 85.56061020158697 M484 84 C484 84, 484 84, 484 84 M484 84 C484 84, 484 84, 484 84" stroke="#1971c2" stroke-width="2" fill="none" stroke-linecap="round" stroke-linejoin="round"/>
<text x="549" y="117" text-anchor="middle" font-size="15" fill="#1e1e1e">Activate</text>
<text x="549" y="136" text-anchor="middle" font-size="11.5" fill="#495057">admin action</text>
<path d="M673.4761407132966 81.69593153962398 C760.3440463136116 90.11011134727136, 839.8876539053167 86.4144818999484, 901.065591929493 82.98858855690801 C907.4816162725044 82.72749923951923, 916.5157908331603 86.81645998162496, 913.3118186604231 93.39855728633702 C912.9846706183665 112.8743553031236, 911.8662008436435 131.14995822571217, 912.0564919162541 150.12128950469196 C912.546859877184 153.59597904878387, 909.8559205231321 155.56798129193484, 906.9656809855253 161.38685228936373 C850.4545293693411 162.19824597250334, 798.3591395510889 156.9154999394298, 673.5773172212183 158.71941742779757 C670.4498855116713 160.59512470252812, 666.0645157348365 153.96188378902804, 665.3345402967185 150.59466289766132 C667.3169819128103 135.43631475307046, 662.9112307202406 119.10367051921786, 666.0594742823392 95.28308279626071 C663.3442125130445 90.15936967161763, 670.5821619789051 85.51247454993427, 671.6896583009511 86.89584521166981 C674 84, 674 84, 674 84" stroke="none" stroke-width="0" fill="#e9ecef" stroke-linecap="round" stroke-linejoin="round"/>
<path d="M672.2180764520828 84.882448486399 C720.9632705476313 81.33840997612732, 764.5554654250363 84.00384334913021, 903.8030764842487 84.87943316583247 M674.7473211985739 84.36480636164468 C764.8856244592963 85.67881352735394, 856.4938295765573 85.7226933463428, 904.6689229702346 84.07036619171917 M904 84 C908.2353141781939 85.07910477630794, 915.066657160595 89.28495158580411, 913.7913561094553 94.15075951330364 M904.4695891726763 84.13895425312221 C911.524957133687 84.36420938769355, 913.551353355553 89.57497840061131, 914.0698653315567 95.12941957095637 M915.9250878404825 94.91514793522656 C913.8577064047345 107.43322826735675, 916.163655961562 117.93315559960902, 914.6544233273714 149.46843554861843 M914.3124795669689 93.40117715951055 C914.7293788082338 109.53771378528327, 913.3249169654584 123.85190296079963, 914.3799717241898 148.21509836670012 M914 148 C915.1330449450761 154.33539126711617, 908.023111641134 159.65043836347758, 905.2265179622918 160.04855778925122 M912.5102434266358 148.3604471396655 C912.1811535160803 155.72422220711317, 907.2514162357216 159.57152369836345, 902.3254606114887 156.35917716959491 M902.7241353770672 158.20503441103156 C845.6639583110218 157.41832849235138, 784.581184023415 155.41314584791346, 675.6961275467605 156.71261967876762 M903.4116275984894 158.59335068065852 C819.6680563808062 158.3669143840541, 733.9495806268396 157.87760909591864, 674.4924334125923 158.24723024404753 M674 158 C668.2376314858841 158.68104593269527, 665.3682171333581 153.73209182816277, 663.9113578546792 148.9550032209605 M673.4330464232713 157.7838977288455 C667.941845366613 158.68928259888665, 662.4903308569453 155.32364310805406, 665.5263594650291 150.0777364192344 M664.4239970754832 148.16283064968883 C666.2423565400056 129.95737121962011, 664.6810133111886 113.60460839904844, 663.5936417054385 92.67876322157682 M663.1273678297177 146.97250830288976 C663.9817664104513 133.12963571529835, 663.7554944175296 117.73563149776311, 664.1208357864991 93.06425009723753 M664 94 C664.5974055159837 88.63881455091108, 668.4659303526329 84.09564276449382, 672.6328875053674 82.5127715896815 M664.9718848813325 93.85510680191219 C662.5676349084638 88.23181895806734, 669.1416681924024 84.80690628150478, 672.6895003687404 83.38229946831241 M674 84 C674 84, 674 84, 674 84 M674 84 C674 84, 674 84, 674 84" stroke="#495057" stroke-width="2" fill="none" stroke-linecap="round" stroke-linejoin="round"/>
<text x="789" y="117" text-anchor="middle" font-size="15" fill="#1e1e1e">Reconcile + roll</text>
<text x="789" y="136" text-anchor="middle" font-size="11.5" fill="#495057">renders ConfigMap · worker reloads</text>
<path d="M965.6080901042558 82.11742253294214 C995.459006070625 86.82051976853889, 1031.4493279551157 83.11014007562677, 1105.1993345544674 85.27827869346365 C1114.2980008715829 81.22848135521636, 1116.6234976486303 89.53214953447971, 1118.5908121840098 95.09493433227763 C1116.1099445690224 111.26629656394944, 1113.1015294452022 124.34459959091619, 1114.119223770406 151.65062127271668 C1115.4199620156548 156.1093051755866, 1109.621387416876 154.82040919521825, 1108.939455306437 160.84709701398387 C1059.3715000635946 154.38624553402235, 1007.7706819680519 152.70620174427796, 960.7099481836892 155.30877486458047 C954.8381974048848 155.7985220133327, 950.4561055825092 151.99542079941088, 952.8714881644585 145.0051865725778 C952.8831241239822 126.28404027996585, 956.512881817392 107.66808732347563, 950.9794555067085 91.4967643246986 C955.8315058170817 89.29444885625783, 960.7894837459485 80.9414914981462, 964.9107175259851 81.84569682637229 C964 84, 964 84, 964 84" stroke="none" stroke-width="0" fill="#d3f9d8" stroke-linecap="round" stroke-linejoin="round"/>
<path d="M964.9036719829776 83.9502903087996 C991.0820088933223 86.00190339182598, 1020.5812595953234 86.09981499110442, 1107.0350427092053 83.34661604901775 M963.1481336004566 83.65702764247544 C995.9084205669816 82.80219076250029, 1026.784827633528 82.25565965596866, 1105.127602975769 83.82324334387667 M1106 84 C1112.8143308453327 84.59264423260466, 1117.3297520591877 88.33880155309383, 1116.1589045419357 95.2811437816359 M1105.6613602145576 83.91891690501943 C1110.0602110492364 86.01596686582546, 1113.8965802611085 90.56293646842985, 1116.5036105219694 94.39350598420482 M1114.0188409776426 95.47283179005608 C1118.1288744906178 113.1951292769052, 1116.9171793887606 132.27719687102362, 1115.1027955890634 149.4458796753548 M1115.1611395515035 93.56729062949307 C1115.799178051385 106.89441784904339, 1116.6695568570822 118.4841137808282, 1115.081042142911 147.2852804512251 M1116 148 C1114.8485108359716 152.78941068743075, 1109.5945496462352 157.53438259074466, 1107.3453221752309 157.64672056743876 M1114.38203783473 146.3483202517964 C1116.444944713083 152.43909273242764, 1111.3265436906295 158.67889954473358, 1106.4219056333275 155.6968263542233 M1107.2203201682307 159.07484066328033 C1066.7272727540694 158.57637782031762, 1026.4325683307834 159.58300180668104, 965.9917829812505 156.9562879397534 M1106.8205503411125 158.68551584337837 C1077.9271873058285 157.42387996315304, 1047.3023430522064 158.102646593743, 963.6625450841617 158.41375756864437 M964 158 C958.754077163891 156.8303690017201, 955.3420820309781 152.1645648399433, 952.7831920637749 148.46411047885195 M964.5377980812452 157.85117979058995 C958.3539772546459 157.93764983456117, 953.3851641018363 155.12920723697357, 952.0446223030658 147.82319129134993 M953.464139828179 149.29364603003486 C954.1841907021487 130.2879916203208, 953.7670852151597 115.30120155615732, 953.9541289092042 93.15657619377598 M953.8087023950648 147.5733121708501 C954.5758652108246 127.53605127655901, 955.3165120752984 105.74226119411179, 953.7126513503026 93.89333045785315 M954 94 C954.9937414272688 89.16958819552603, 959.4405295615951 84.77405857751145, 964.3090620591305 84.33465628931299 M955.3815950556658 93.17493204483762 C952.4302290123375 87.10180704579501, 957.5266508956422 82.5069743629871, 966.0064468104812 86.03398873503785 M964 84 C964 84, 964 84, 964 84 M964 84 C964 84, 964 84, 964 84" stroke="#2f9e44" stroke-width="2" fill="none" stroke-linecap="round" stroke-linejoin="round"/>
<text x="1035" y="117" text-anchor="middle" font-size="15" fill="#1e1e1e">Active</text>
<text x="1035" y="136" text-anchor="middle" font-size="11.5" fill="#495057">governing live traffic</text>
<text x="24" y="196" font-size="11.5" fill="#868e96">Shadow is optional; a policy can be activated straight from draft. Deactivating returns it to shadow.</text>
</svg>